<?xml version="1.0" encoding="iso-8859-1"?>
<!-- Uploaded to: SVG Repo, www.svgrepo.com, Generator: SVG Repo Mixer Tools -->
<svg fill="#000000" version="1.1" id="Layer_1" xmlns="http://www.w3.org/2000/svg" xmlns:xlink="http://www.w3.org/1999/xlink"
	 viewBox="0 0 511.999 511.999" xml:space="preserve">
<g>
	<g>
		<path d="M494.864,212.207H17.136C7.794,212.207,0,220.142,0,229.484v21.78c0,22.944,17.258,42.788,39.953,46.16l137.104,20.347
			v35.855c0,63.594,51.671,115.709,115.265,115.709h104.124c63.594,0,115.552-52.113,115.552-115.709V229.483
			C512,220.142,504.206,212.207,494.864,212.207z M177.057,283.567L44.924,263.96c-6.241-0.927-11.091-6.384-11.091-12.695v-5.225
			h143.225V283.567z M478.169,353.628h-0.001c0,44.939-36.781,81.876-81.719,81.876H292.324c-44.939,0-81.433-36.936-81.433-81.876
			V303.44c0-0.186,0-0.371,0-0.557V246.04h267.278V353.628z"/>
	</g>
</g>
<g>
	<g>
		<path d="M289.14,156.442l-8.297-6.667c-1.754-1.41-3.07-3.205-3.909-5.209c-0.69-1.651-1.063-3.441-1.037-5.295
			c0.016-1.147,0.189-2.262,0.484-3.337c0.758-2.771,2.391-5.238,4.746-7.027c11.455-8.706,18.226-21.948,18.576-36.333
			c0.351-14.385-5.766-27.94-16.783-37.194c-7.154-6.009-17.825-5.081-23.834,2.073c-6.009,7.153-5.081,17.824,2.073,23.834
			c4.244,3.564,4.779,8.085,4.722,10.463c-0.057,2.377-0.813,6.867-5.226,10.221c-11.615,8.827-18.39,22.256-18.587,36.844
			c-0.197,14.587,6.212,28.195,17.583,37.333l8.297,6.667c3.125,2.51,6.867,3.731,10.586,3.731c4.95,0,9.855-2.162,13.197-6.32
			C297.583,172.942,296.423,162.295,289.14,156.442z"/>
	</g>
</g>
<g>
	<g>
		<path d="M359.393,165.196l-9.731-7.82c-0.872-0.7-1.644-1.484-2.363-2.308c-2.955-3.391-4.593-7.727-4.531-12.328
			c0.048-3.63,1.145-7.072,3.098-9.992c1.123-1.679,2.526-3.188,4.19-4.452c12.723-9.669,20.244-24.379,20.633-40.354
			s-6.404-31.035-18.641-41.313c-7.154-6.01-17.825-5.082-23.833,2.072c-6.01,7.153-5.082,17.824,2.072,23.833
			c4.319,3.628,6.718,8.943,6.579,14.582c-0.139,5.639-2.793,10.831-7.283,14.243c-12.9,9.804-20.426,24.719-20.645,40.923
			c-0.22,16.202,6.898,31.317,19.529,41.466l9.731,7.82c3.125,2.512,6.867,3.731,10.586,3.731c4.95,0,9.855-2.162,13.197-6.32
			C367.835,181.695,366.675,171.048,359.393,165.196z"/>
	</g>
</g>
<g>
	<g>
		<path d="M426.998,156.442l-8.297-6.667c-1.754-1.41-3.07-3.205-3.909-5.209c-0.69-1.651-1.063-3.441-1.039-5.295
			c0.016-1.147,0.189-2.263,0.484-3.337c0.758-2.771,2.391-5.238,4.746-7.027c11.456-8.706,18.227-21.948,18.578-36.332
			c0.351-14.383-5.766-27.941-16.783-37.196c-7.154-6.009-17.824-5.081-23.834,2.073c-6.009,7.153-5.081,17.824,2.073,23.834
			c4.244,3.565,4.779,8.086,4.722,10.463c-0.059,2.377-0.814,6.867-5.226,10.221c-11.615,8.827-18.39,22.256-18.586,36.844
			c-0.197,14.587,6.212,28.195,17.583,37.333l8.297,6.667c3.125,2.51,6.867,3.731,10.586,3.731c4.95,0,9.855-2.162,13.197-6.32
			C435.44,172.942,434.281,162.295,426.998,156.442z"/>
	</g>
</g>
</svg>
