<?xml version="1.0" ?><!-- Uploaded to: SVG Repo, www.svgrepo.com, Generator: SVG Repo Mixer Tools -->
<svg fill="#000000" viewBox="0 0 96 96" data-name="Your Icons" id="Your_Icons" xmlns="http://www.w3.org/2000/svg"><title/><path d="M48.17,78.67a.85.85,0,0,1-.9-.79V35.08a.91.91,0,0,1,1.8,0v42.8A.85.85,0,0,1,48.17,78.67Z"/><path d="M47.45,67.15l-1.3-.46a49.75,49.75,0,0,1-5.54-2.41c-3.8-2-7.44-8.6-7.59-8.88l-1-1.88L34.07,53c.2,0,5-1.21,10.91,2.59C51.62,59.83,48.19,65.9,48.15,66ZM35,54.84c.83,1.43,3.76,6.2,6.54,7.67a46,46,0,0,0,5,2.19c.48-1,1.75-4.63-2.65-7.45A13.6,13.6,0,0,0,35,54.84Z"/><path d="M48.54,67.15,47.85,66c0-.06-3.47-6.13,3.17-10.39,5.8-3.72,10.4-2.72,10.9-2.59l2.09.54L63,55.4c-.15.28-3.79,6.88-7.58,8.88a46.65,46.65,0,0,1-5.53,2.4ZM59.8,54.77a14.34,14.34,0,0,0-7.7,2.48c-4.39,2.82-3.14,6.41-2.65,7.45a45.17,45.17,0,0,0,5-2.19C57.24,61,60.17,56.26,61,54.84A8.69,8.69,0,0,0,59.8,54.77Z"/><path d="M47.64,52.58l-1.21-.43a40.11,40.11,0,0,1-4.54-2c-3.09-1.63-5.94-6.73-6.26-7.3l-1-1.75,1.94-.49c.41-.11,4.22-1,9,2.13,4.63,3,3.48,7.3,2.64,8.71ZM37.71,42.47c.82,1.37,3,4.83,5.12,5.94a37.06,37.06,0,0,0,3.89,1.71c.4-1,1.1-3.59-2.16-5.68A10.93,10.93,0,0,0,37.71,42.47Z"/><path d="M48.36,52.58l-.65-1.11s-2.9-5.16,2.65-8.71c4.78-3.07,8.6-2.24,9-2.14l1.94.5-1,1.75c-.31.57-3.16,5.67-6.26,7.3a40,40,0,0,1-4.53,2Zm9.25-10.14a11.47,11.47,0,0,0-6.17,2c-3.25,2.08-2.57,4.71-2.16,5.68a37.06,37.06,0,0,0,3.89-1.71c2.09-1.11,4.3-4.57,5.11-5.94C58.1,42.46,57.87,42.44,57.61,42.44Z"/><path d="M47.64,39.14l-1.21-.43a38.77,38.77,0,0,1-4.54-2C38.8,35.11,36,30,35.63,29.43l-1-1.74,1.94-.5c.41-.1,4.22-1,9,2.13,4.63,3,3.48,7.31,2.64,8.72ZM37.71,29c.82,1.37,3,4.83,5.12,5.93a37.57,37.57,0,0,0,3.89,1.72c.4-1,1.1-3.59-2.16-5.68A10.94,10.94,0,0,0,37.71,29Z"/><path d="M48.36,39.14,47.71,38c0-.06-2.9-5.16,2.65-8.72,4.81-3.08,8.61-2.23,9-2.13l1.93.5-1,1.74c-.31.58-3.16,5.68-6.26,7.31a39,39,0,0,1-4.53,2ZM57.6,29a11.45,11.45,0,0,0-6.16,2c-3.25,2.08-2.57,4.71-2.16,5.68A37.57,37.57,0,0,0,53.17,35c2.09-1.1,4.3-4.56,5.11-5.93A6.52,6.52,0,0,0,57.6,29Z"/><path d="M47.79,92.05l-34.4-34.4c-8-8-11-17.44-8.59-26.59A24.27,24.27,0,0,1,21.92,14c8.88-2.39,18,.42,25.87,7.89C61.62,8.61,76.73,11.38,85,19.69s11.17,23.94-2.84,38ZM28.1,15.13a21.53,21.53,0,0,0-5.66.75A22.26,22.26,0,0,0,6.73,31.58C4.47,40,7.34,48.77,14.81,56.23l33,33,33-33c13-13,10.62-27.35,2.85-35.13S61.55,10.9,48.5,24l-.71.71-.7-.71C41.29,18.15,34.71,15.13,28.1,15.13ZM81.49,56.94h0Z"/></svg>
